<?xml version="1.0" encoding="UTF-8"?>
<!DOCTYPE svg PUBLIC "-//W3C//DTD SVG 1.1//EN" "http://www.w3.org/Graphics/SVG/1.1/DTD/svg11.dtd">
<!-- Creator: CorelDRAW X7 -->
<svg xmlns="http://www.w3.org/2000/svg" xml:space="preserve" width="3.55939in" height="1.4384in" version="1.1" style="shape-rendering:geometricPrecision; text-rendering:geometricPrecision; image-rendering:optimizeQuality; fill-rule:evenodd; clip-rule:evenodd"
viewBox="0 0 3528 1426"
 xmlns:xlink="http://www.w3.org/1999/xlink">
 <defs>
  <style type="text/css">
   <![CDATA[
    .fil2 {fill:#00AFEF}
    .fil0 {fill:#122680}
    .fil1 {fill:#74F289}
    .fil3 {fill:#373435;fill-rule:nonzero}
   ]]>
  </style>
 </defs>
 <g id="Layer_x0020_1">
  <metadata id="CorelCorpID_0Corel-Layer"/>
  <g id="_2047204388304">
   <path class="fil0" d="M73 0l1432 0 -203 343 -1229 0c-40,0 -73,-39 -73,-87l0 -169c0,-48 33,-87 73,-87z"/>
   <rect class="fil1" y="948" width="448" height="293" rx="43" ry="147"/>
   <path class="fil2" d="M45 499l792 0 100 293 -892 0c-25,0 -45,-33 -45,-74l0 -145c0,-41 20,-74 45,-74z"/>
  </g>
  <polygon class="fil3" points="1944,1235 1862,1235 1862,801 2174,801 2174,880 1944,880 1944,998 2162,998 2162,1074 1944,1074 "/>
  <path id="1" class="fil3" d="M2301 928l-76 0 0 307 76 0 0 -307zm-69 -52c-9,-8 -14,-19 -14,-33 0,-14 5,-25 14,-33 9,-8 20,-12 31,-12 11,0 21,4 30,12 10,8 14,19 14,33 0,14 -4,25 -14,33 -9,7 -19,11 -30,11 -11,0 -22,-4 -31,-11z"/>
  <path id="2" class="fil3" d="M2670 1235l-76 0 0 -160c0,-24 -6,-44 -19,-59 -13,-16 -31,-23 -55,-23 -23,0 -41,8 -56,25 -15,16 -22,36 -22,60l0 157 -75 0 0 -307 68 0 4 42c32,-31 65,-46 101,-46 37,0 68,13 93,40 24,27 37,63 37,110l0 161z"/>
  <polygon id="3" class="fil3" points="2735,801 2810,801 2810,1235 2735,1235 "/>
  <path id="4" class="fil3" d="M2905 969c29,-31 67,-46 115,-46 48,0 86,15 116,46 29,30 44,68 44,113 0,46 -14,84 -43,114 -29,30 -68,46 -116,46 -49,0 -87,-16 -116,-46 -29,-30 -43,-68 -43,-114 0,-45 14,-83 43,-113zm116 23c-26,0 -47,8 -61,26 -15,18 -22,39 -22,64 0,25 7,46 22,64 14,17 35,26 61,26 26,0 46,-9 61,-26 14,-18 22,-39 22,-64 0,-24 -8,-45 -23,-63 -16,-18 -36,-27 -60,-27z"/>
  <path id="5" class="fil3" d="M3442 936l30 -38 56 42 -34 43c21,25 32,55 32,91 0,23 -5,45 -15,66 -10,22 -27,38 -49,48 42,21 63,55 63,101 0,42 -14,75 -43,100 -28,24 -65,37 -110,37 -45,0 -82,-13 -112,-38 -29,-25 -43,-58 -43,-99l75 0c0,20 7,36 23,48 15,12 34,18 57,18 22,0 41,-6 55,-17 15,-12 22,-28 22,-49 0,-20 -7,-35 -23,-45 -15,-11 -34,-16 -54,-16 -48,0 -86,-14 -114,-41 -27,-28 -41,-65 -41,-113 0,-47 15,-84 44,-113 30,-28 67,-42 111,-42 30,0 53,6 70,17zm-70 52c-23,0 -42,8 -57,23 -16,16 -23,37 -23,63 0,26 7,47 23,62 15,15 34,23 57,23 22,0 41,-8 56,-23 15,-16 23,-36 23,-62 0,-26 -8,-46 -23,-62 -15,-16 -34,-24 -56,-24z"/>
 </g>
</svg>
