<?xml version="1.0" encoding="UTF-8"?>
<!DOCTYPE svg PUBLIC "-//W3C//DTD SVG 1.1//EN" "http://www.w3.org/Graphics/SVG/1.1/DTD/svg11.dtd">
<!-- Creator: CorelDRAW X7 -->
<svg xmlns="http://www.w3.org/2000/svg" xml:space="preserve" width="1.68086in" height="0.633299in" version="1.1" style="shape-rendering:geometricPrecision; text-rendering:geometricPrecision; image-rendering:optimizeQuality; fill-rule:evenodd; clip-rule:evenodd"
viewBox="0 0 1681 633"
 xmlns:xlink="http://www.w3.org/1999/xlink">
 <defs>
  <style type="text/css">
   <![CDATA[
    .fil0 {fill:#373435;fill-rule:nonzero}
   ]]>
  </style>
 </defs>
 <g id="Layer_x0020_1">
  <metadata id="CorelCorpID_0Corel-Layer"/>
  <polygon class="fil0" points="83,441 0,441 0,3 315,3 315,83 83,83 83,202 302,202 302,278 83,278 "/>
  <path id="1" class="fil0" d="M442 131l-76 0 0 310 76 0 0 -310zm-69 -53c-9,-8 -14,-19 -14,-33 0,-14 5,-25 14,-33 10,-8 20,-12 31,-12 12,0 22,4 31,12 10,8 14,19 14,33 0,14 -4,25 -14,33 -9,8 -19,12 -31,12 -11,0 -21,-4 -31,-12z"/>
  <path id="2" class="fil0" d="M815 441l-77 0 0 -162c0,-24 -6,-44 -19,-59 -13,-16 -31,-24 -55,-24 -23,0 -42,9 -57,26 -14,16 -22,37 -22,61l0 158 -76 0 0 -310 69 0 5 42c31,-31 65,-46 101,-46 38,0 69,13 94,40 24,27 37,64 37,111l0 163z"/>
  <polygon id="3" class="fil0" points="880,3 956,3 956,441 880,441 "/>
  <path id="4" class="fil0" d="M1053 172c29,-31 67,-46 115,-46 48,0 87,15 117,46 30,31 45,69 45,115 0,46 -15,84 -44,114 -29,31 -68,46 -117,46 -49,0 -88,-15 -117,-46 -29,-30 -43,-68 -43,-114 0,-46 14,-84 44,-115zm116 23c-26,0 -47,9 -62,27 -14,18 -22,40 -22,65 0,25 8,46 22,64 15,17 36,26 62,26 26,0 47,-9 62,-26 14,-18 22,-39 22,-64 0,-25 -8,-46 -24,-64 -15,-19 -35,-28 -60,-28z"/>
  <path id="5" class="fil0" d="M1594 140l31 -39 56 42 -35 44c22,25 33,55 33,91 0,23 -5,46 -15,67 -11,22 -27,38 -50,49 42,21 64,55 64,102 0,41 -15,75 -43,100 -29,25 -66,37 -112,37 -45,0 -83,-12 -112,-38 -30,-25 -44,-58 -44,-99l75 0c0,19 8,35 24,47 16,13 35,19 57,19 23,0 41,-6 56,-18 15,-11 22,-28 22,-48 0,-20 -7,-36 -23,-46 -16,-11 -34,-16 -55,-16 -48,0 -86,-14 -114,-42 -28,-28 -42,-66 -42,-114 0,-47 15,-85 45,-113 30,-29 67,-43 111,-43 30,0 54,6 71,18zm-71 51c-23,0 -42,8 -57,24 -16,16 -24,37 -24,63 0,27 8,48 24,63 15,15 34,23 57,23 23,0 42,-8 57,-23 16,-16 23,-37 23,-63 0,-25 -7,-46 -23,-62 -15,-16 -34,-25 -57,-25z"/>
 </g>
</svg>
